<?xml version="1.0" encoding="utf-8" standalone="no"?>
<!DOCTYPE svg PUBLIC "-//W3C//DTD SVG 1.1//EN"
  "http://www.w3.org/Graphics/SVG/1.1/DTD/svg11.dtd">
<svg xmlns:xlink="http://www.w3.org/1999/xlink" width="360pt" height="288pt" viewBox="0 0 360 288" xmlns="http://www.w3.org/2000/svg" version="1.1">
 <metadata>
  <rdf:RDF xmlns:dc="http://purl.org/dc/elements/1.1/" xmlns:cc="http://creativecommons.org/ns#" xmlns:rdf="http://www.w3.org/1999/02/22-rdf-syntax-ns#">
   <cc:Work>
    <dc:type rdf:resource="http://purl.org/dc/dcmitype/StillImage"/>
    <dc:date>2026-09-19T23:10:54.655928</dc:date>
    <dc:format>image/svg+xml</dc:format>
    <dc:creator>
     <cc:Agent>
      <dc:title>Matplotlib v3.9.4, https://matplotlib.org/</dc:title>
     </cc:Agent>
    </dc:creator>
   </cc:Work>
  </rdf:RDF>
 </metadata>
 <defs>
  <style type="text/css">*{stroke-linejoin: round; stroke-linecap: butt}</style>
 </defs>
 <g id="figure_1">
  <g id="patch_1">
   <path d="M 0 288 
L 360 288 
L 360 0 
L 0 0 
z
" style="fill: #ffffff"/>
  </g>
  <g id="axes_1">
   <g id="patch_2">
    <path d="M 57.24 260.46 
L 302.76 260.46 
L 302.76 88.596 
L 57.24 88.596 
L 57.24 260.46 
z
" clip-path="url(#p3b05c93d95)" style="fill: none; stroke: #222222; stroke-width: 1.4; stroke-linejoin: miter"/>
   </g>
   <g id="patch_3">
    <path d="M 166.377226 104.778 
Q 178.88376 104.778 190.048654 104.778 
" clip-path="url(#p3b05c93d95)" style="fill: none; stroke: #222222; stroke-width: 1.2; stroke-linecap: round"/>
    <path d="M 185.248654 102.378 
L 190.048654 104.778 
L 185.248654 107.178 
z
" clip-path="url(#p3b05c93d95)" style="fill: #222222; stroke: #222222; stroke-width: 1.2; stroke-linecap: round"/>
   </g>
   <g id="patch_4">
    <path d="M 191.390774 112.032 
Q 178.88424 112.032 167.719346 112.032 
" clip-path="url(#p3b05c93d95)" style="fill: none; stroke: #222222; stroke-width: 1.2; stroke-linecap: round"/>
    <path d="M 172.519346 114.432 
L 167.719346 112.032 
L 172.519346 109.632 
z
" clip-path="url(#p3b05c93d95)" style="fill: #222222; stroke: #222222; stroke-width: 1.2; stroke-linecap: round"/>
   </g>
   <g id="patch_5">
    <path d="M 138.15 162.245163 
Q 138.15 174.807997 138.15 187.37083 
" clip-path="url(#p3b05c93d95)" style="fill: none; stroke: #222222; stroke-width: 1.2; stroke-linecap: round"/>
    <path d="M 135.75 167.045163 
L 138.15 162.245163 
L 140.55 167.045163 
" clip-path="url(#p3b05c93d95)" style="fill: none; stroke: #222222; stroke-width: 1.2; stroke-linecap: round"/>
    <path d="M 140.55 182.57083 
L 138.15 187.37083 
L 135.75 182.57083 
" clip-path="url(#p3b05c93d95)" style="fill: none; stroke: #222222; stroke-width: 1.2; stroke-linecap: round"/>
   </g>
   <g id="patch_6">
    <path d="M 113.04 237.024 
C 120.1432 237.024 126.956427 234.201869 131.979148 229.179148 
C 137.001869 224.156427 139.824 217.3432 139.824 210.24 
C 139.824 203.1368 137.001869 196.323573 131.979148 191.300852 
C 126.956427 186.278131 120.1432 183.456 113.04 183.456 
C 105.9368 183.456 99.123573 186.278131 94.100852 191.300852 
C 89.078131 196.323573 86.256 203.1368 86.256 210.24 
C 86.256 217.3432 89.078131 224.156427 94.100852 229.179148 
C 99.123573 234.201869 105.9368 237.024 113.04 237.024 
z
" clip-path="url(#p3b05c93d95)" style="fill: #efefef; stroke: #777777; stroke-width: 1.2; stroke-linejoin: miter"/>
   </g>
   <g id="patch_7">
    <path d="M 168.84 242.046 
C 177.27505 242.046 185.365757 238.694719 191.330238 232.730238 
C 197.294719 226.765757 200.646 218.67505 200.646 210.24 
C 200.646 201.80495 197.294719 193.714243 191.330238 187.749762 
C 185.365757 181.785281 177.27505 178.434 168.84 178.434 
C 160.40495 178.434 152.314243 181.785281 146.349762 187.749762 
C 140.385281 193.714243 137.034 201.80495 137.034 210.24 
C 137.034 218.67505 140.385281 226.765757 146.349762 232.730238 
C 152.314243 238.694719 160.40495 242.046 168.84 242.046 
z
" clip-path="url(#p3b05c93d95)" style="fill: #efefef; stroke: #777777; stroke-width: 1.2; stroke-linejoin: miter"/>
   </g>
   <g id="patch_8">
    <path d="M 230.22 235.35 
C 236.87925 235.35 243.266651 232.704252 247.975451 227.995451 
C 252.684252 223.286651 255.33 216.89925 255.33 210.24 
C 255.33 203.58075 252.684252 197.193349 247.975451 192.484549 
C 243.266651 187.775748 236.87925 185.13 230.22 185.13 
C 223.56075 185.13 217.173349 187.775748 212.464549 192.484549 
C 207.755748 197.193349 205.11 203.58075 205.11 210.24 
C 205.11 216.89925 207.755748 223.286651 212.464549 227.995451 
C 217.173349 232.704252 223.56075 235.35 230.22 235.35 
z
" clip-path="url(#p3b05c93d95)" style="fill: #efefef; stroke: #777777; stroke-width: 1.2; stroke-linejoin: miter"/>
   </g>
   <g id="text_1">
    <text style="fill: #222222; font: 700 15px 'Helvetica'; text-anchor: start" x="20.412" y="33.822797" transform="rotate(-0 20.412 33.822797)">a</text>
   </g>
   <g id="text_2">
    <text style="fill: #222222; font: 15px 'Helvetica'; text-anchor: middle" x="180" y="33.969281" transform="rotate(-0 180 33.969281)">Gas–solid equilibrium</text>
   </g>
   <g id="text_3">
    <text style="fill: #222222; font: 12px 'Helvetica'; text-anchor: middle" x="180" y="67.13775" transform="rotate(-0 180 67.13775)">Closed gas charge + oxide</text>
   </g>
   <g id="text_4">
    <text style="fill: #222222; font: 13px 'Helvetica'; text-anchor: middle" x="121.41" y="110.6935" transform="rotate(-0 121.41 110.6935)">CO₂ + H₂</text>
   </g>
   <g id="text_5">
    <text style="fill: #222222; font: 13px 'Helvetica'; text-anchor: middle" x="236.916" y="110.6935" transform="rotate(-0 236.916 110.6935)">CO + H₂O</text>
   </g>
   <g id="text_6">
    <text style="fill: #0072b2; font: 11px 'Helvetica'; text-anchor: middle" x="87.93" y="143.671078" transform="rotate(-0 87.93 143.671078)">H₂</text>
   </g>
   <g id="text_7">
    <text style="fill: #0072b2; font: 11px 'Helvetica'; text-anchor: middle" x="142.056" y="136.5245" transform="rotate(-0 142.056 136.5245)">CO₂</text>
   </g>
   <g id="text_8">
    <text style="fill: #0072b2; font: 11px 'Helvetica'; text-anchor: middle" x="207.342" y="144.404984" transform="rotate(-0 207.342 144.404984)">CO</text>
   </g>
   <g id="text_9">
    <text style="fill: #0072b2; font: 11px 'Helvetica'; text-anchor: middle" x="267.606" y="136.5245" transform="rotate(-0 267.606 136.5245)">H₂O</text>
   </g>
   <g id="text_10">
    <text style="fill: #222222; font: 11px 'Helvetica'; text-anchor: middle" x="210.69" y="178.479938" transform="rotate(-0 210.69 178.479938)">O exchange</text>
   </g>
   <g id="text_11">
    <text style="fill: #222222; font: 10px 'Helvetica'; text-anchor: middle" x="180" y="250.268187" transform="rotate(-0 180 250.268187)">Ti–O solid phases</text>
   </g>
  </g>
 </g>
 <defs>
  <clipPath id="p3b05c93d95">
   <rect x="12.6" y="14.94" width="334.8" height="256.68"/>
  </clipPath>
 </defs>
</svg>
